{"title":"Jism-2.[2012]-1CD-DVDRip By K@rtik [EXD Exclusive]","uid":7634220,"size":740734004,"categoryP":"video","categoryS":"movies","magnet":"?xt=urn:btih:c69279fb16e7ffc86f1c985b6843c4e3c81d14f4&amp;dn=Jism-2.%5B2012%5D-1CD-DVDRip+By+K%40rtik+%5BEXD+Exclusive%5D&amp;tr=udp%3A%2F%2Ftracker.openbittorrent.com%3A80&amp;tr=udp%3A%2F%2Fopen.demonii.com%3A1337&amp;tr=udp%3A%2F%2Ftracker.coppersurfer.tk%3A6969&amp;tr=udp%3A%2F%2Fexodus.desync.com%3A6969","seeders":0,"leechers":0,"uploader":"TeamExD","files":4,"time":1347602020,"description":"Format                                   : Matroska\nFormat version                           : Version 2\nFile size                                : 697 MiB\nDuration                                 : 2h 4mn\nOverall bit rate                         : 782 Kbps\nMovie name                               : Jism-2.[2012]-1CD-DVDRip By K@rtik [EXD Exclusive]\nCodec ID                                 : V_MPEG4/ISO/AVC\nDuration                                 : 2h 4mn\nBit rate                                 : 653 Kbps\nWidth                                    : 672 pixels\nHeight                                   : 288 pixels\nDisplay aspect ratio                     : 2.35:1\nFrame rate                               : 29.970 fps\nStream size                              : 569 MiB (82%)\nTitle                                    : K@rtik\nCodec ID                                 : A_AC3\nDuration                                 : 2h 4mn\nBit rate mode                            : Constant\nBit rate                                 : 128 Kbps\nChannel(s)                               : 2 channels\nChannel positions                        : Front: L R\nSampling rate                            : 48.0 KHz\nStream size                              : 114 MiB (16%)\nTitle                                    : K@rtik\nLanguage                                 : Hindi &lt;a href=&quot;\nhttp://img210.imageshack.us/img210/5512/exdp.jpg&quot; rel=&quot;nofollow&quot; target=&quot;_NEW&quot;&gt;\nhttp://img210.imageshack.us/img210/5512/exdp.jpg&lt;/a&gt; &lt;a href=&quot;\nhttp://img443.imageshack.us/img443/3003/jism2001.jpg&quot; rel=&quot;nofollow&quot; target=&quot;_NEW&quot;&gt;\nhttp://img443.imageshack.us/img443/3003/jism2001.jpg&lt;/a&gt; &lt;a href=&quot;\nhttp://img850.imageshack.us/img850/3330/69952203.png&quot; rel=&quot;nofollow&quot; target=&quot;_NEW&quot;&gt;\nhttp://img850.imageshack.us/img850/3330/69952203.png&lt;/a&gt; &lt;a href=&quot;\nhttp://img401.imageshack.us/img401/3589/70646758.png&quot; rel=&quot;nofollow&quot; target=&quot;_NEW&quot;&gt;\nhttp://img401.imageshack.us/img401/3589/70646758.png&lt;/a&gt; &lt;a href=&quot;\nhttp://img705.imageshack.us/img705/8051/74714110.png&quot; rel=&quot;nofollow&quot; target=&quot;_NEW&quot;&gt;\nhttp://img705.imageshack.us/img705/8051/74714110.png&lt;/a&gt; &lt;a href=&quot;\nhttp://img694.imageshack.us/img694/7775/39469640.png&quot; rel=&quot;nofollow&quot; target=&quot;_NEW&quot;&gt;\nhttp://img694.imageshack.us/img694/7775/39469640.png&lt;/a&gt; &lt;a href=&quot;\nhttp://img513.imageshack.us/img513/5830/55438826.png&quot; rel=&quot;nofollow&quot; target=&quot;_NEW&quot;&gt;\nhttp://img513.imageshack.us/img513/5830/55438826.png&lt;/a&gt; &lt;a href=&quot;\nhttp://img42.imageshack.us/img42/5963/86973914.png&quot; rel=&quot;nofollow&quot; target=&quot;_NEW&quot;&gt;\nhttp://img42.imageshack.us/img42/5963/86973914.png&lt;/a&gt; &lt;a href=&quot;\nhttp://img145.imageshack.us/img145/3061/54349771.png&quot; rel=&quot;nofollow&quot; target=&quot;_NEW&quot;&gt;\nhttp://img145.imageshack.us/img145/3061/54349771.png&lt;/a&gt; &lt;a href=&quot;\nhttp://img687.imageshack.us/img687/6530/97280186.png&quot; rel=&quot;nofollow&quot; target=&quot;_NEW&quot;&gt;\nhttp://img687.imageshack.us/img687/6530/97280186.png&lt;/a&gt; &lt;a href=&quot;\nhttp://img31.imageshack.us/img31/9593/43231678.png&quot; rel=&quot;nofollow&quot; target=&quot;_NEW&quot;&gt;\nhttp://img31.imageshack.us/img31/9593/43231678.png&lt;/a&gt; &lt;a href=&quot;\nhttp://img404.imageshack.us/img404/9726/81774840.png&quot; rel=&quot;nofollow&quot; target=&quot;_NEW&quot;&gt;\nhttp://img404.imageshack.us/img404/9726/81774840.png&lt;/a&gt; &lt;a href=&quot;\nhttp://img820.imageshack.us/img820/8165/95718899.png&quot; rel=&quot;nofollow&quot; target=&quot;_NEW&quot;&gt;\nhttp://img820.imageshack.us/img820/8165/95718899.png&lt;/a&gt;","torrent":{"xt":"urn:btih:c69279fb16e7ffc86f1c985b6843c4e3c81d14f4","amp;dn":"Jism-2.%5B2012%5D-1CD-DVDRip+By+K%40rtik+%5BEXD+Exclusive%5D","amp;tr":["udp%3A%2F%2Ftracker.openbittorrent.com%3A80","udp%3A%2F%2Fopen.demonii.com%3A1337","udp%3A%2F%2Ftracker.coppersurfer.tk%3A6969","udp%3A%2F%2Fexodus.desync.com%3A6969"],"infoHash":"c69279fb16e7ffc86f1c985b6843c4e3c81d14f4","infoHashBuffer":{"type":"Buffer","data":[198,146,121,251,22,231,255,200,111,28,152,91,104,67,196,227,200,29,20,244]},"announce":[],"urlList":[]}}